<svg id="Layer_3" enable-background="new 0 0 64 64" height="512" viewBox="0 0 64 64" width="512" xmlns="http://www.w3.org/2000/svg"><g><path d="m49 50h13v12h-13z" fill="#88929f"/><path d="m2 50h13v12h-13z" fill="#88929f"/><path d="m40 28h-3l-5 6-5-6h-3c-3.866 0-7 3.134-7 7v9h30v-9c0-3.866-3.134-7-7-7z" fill="#c7e2fb"/><path d="m37 28-5 6-5-6h-3c-3.866 0-7 3.134-7 7v4.747c1.307.164 2.641.253 4 .253 9.595 0 18.059-4.225 23.104-10.662-1.154-.838-2.569-1.338-4.104-1.338z" fill="#ebf7fe"/><path d="m23.025 28.076 2.975 8.924 6-3-5-6h-3.001c-.331 0-.655.031-.974.076z" fill="#4472b0"/><g><path d="m32 34-2.8 1.4 1.8 3.6h2l1.8-3.6z" fill="#2d4d81"/></g><path d="m40.975 28.076c-.319-.045-.643-.076-.974-.076h-3.001l-5 6 6 3z" fill="#4472b0"/><path d="m41 15v2c0 4.971-4.029 9-9 9-4.971 0-9-4.029-9-9v-2h6c1.889 0 3.667-.889 4.8-2.4l1.2-1.6 1.2 1.6c1.133 1.511 2.911 2.4 4.8 2.4z" fill="#efbe9c"/><path d="m23 17v-2h-1.5c-1.381 0-2.5 1.119-2.5 2.5s1.119 2.5 2.5 2.5h2.023c-.333-.94-.523-1.946-.523-3z" fill="#efbe9c"/><g><path d="m32 2c-5.523 0-10 4.477-10 10v3h1 6c1.889 0 3.667-.889 4.8-2.4l1.2-1.6 1.2 1.6c1.133 1.511 2.911 2.4 4.8 2.4h1v-3c0-5.523-4.477-10-10-10z" fill="#976949"/></g><path d="m42.5 15h-1.5v2c0 1.054-.19 2.06-.523 3h2.023c1.381 0 2.5-1.119 2.5-2.5s-1.119-2.5-2.5-2.5z" fill="#efbe9c"/><path d="m32 26c-1.851 0-3.57-.56-5-1.518v3.518l5 6 5-6v-3.518c-1.43.958-3.149 1.518-5 1.518z" fill="#efbe9c"/><path d="m15 44h34v18h-34z" fill="#b8bec5"/><path d="m35 44-2-5h-2l-2 5z" fill="#4472b0"/><path d="m56 7 1.854 3.95 4.146.634-3 3.074.708 4.342-3.708-2.05-3.708 2.05.708-4.342-3-3.074 4.146-.634z" fill="#f5b95b"/><path d="m8 7 2 4 4 1-3 3 .708 4-3.708-3-3.708 3 .708-4-3-3 4-1z" fill="#f5b95b"/><g><path d="m51.932 14.995-.627 3.844c-.062.378.099.758.411.979s.727.243 1.06.058l3.224-1.783 3.225 1.782c.15.083.317.125.483.125.202 0 .404-.062.576-.183.312-.22.473-.601.411-.979l-.627-3.844 2.647-2.713c.262-.268.352-.66.232-1.016s-.427-.615-.797-.671l-3.618-.553-1.628-3.467c-.164-.35-.516-.574-.904-.574s-.74.224-.905.575l-1.628 3.467-3.618.553c-.37.057-.678.316-.797.671s-.029.748.232 1.016zm2.365-3.056c.329-.051.612-.262.754-.564l.949-2.022.949 2.022c.142.302.425.513.754.564l2.222.339-1.641 1.682c-.222.227-.322.546-.271.859l.377 2.309-1.906-1.053c-.15-.083-.316-.125-.483-.125s-.333.042-.483.125l-1.906 1.053.377-2.309c.051-.313-.05-.632-.271-.859l-1.641-1.682z"/><path d="m3.925 15.339-.617 3.487c-.073.411.117.824.477 1.036.358.211.812.179 1.137-.084l3.078-2.492 3.079 2.491c.183.148.405.223.629.223.175 0 .351-.046.508-.139.359-.212.55-.625.477-1.036l-.617-3.487 2.632-2.632c.255-.255.353-.627.257-.974-.097-.347-.372-.616-.722-.703l-3.554-.888-1.794-3.588c-.34-.678-1.449-.678-1.789 0l-1.794 3.589-3.554.888c-.35.087-.625.356-.722.703-.096.347.002.719.257.974zm2.317-3.369c.283-.071.521-.262.652-.523l1.106-2.211 1.105 2.211c.131.261.369.452.652.523l2.286.572-1.751 1.751c-.23.231-.335.56-.277.881l.241 1.365-1.628-1.317c-.183-.148-.405-.222-.628-.222s-.445.074-.629.223l-1.628 1.317.241-1.365c.058-.321-.047-.65-.277-.881l-1.751-1.751z"/><path d="m62 49h-12v-5c0-.552-.447-1-1-1h-1v-8c0-4.411-3.589-8-8-8h-2v-2.019c1.367-1.03 2.464-2.395 3.159-3.981h1.341c1.93 0 3.5-1.57 3.5-3.5 0-1.758-1.308-3.204-3-3.449v-2.051c0-6.065-4.935-11-11-11s-11 4.935-11 11v2.051c-1.692.245-3 1.691-3 3.449 0 1.93 1.57 3.5 3.5 3.5h1.341c.695 1.586 1.793 2.951 3.159 3.981v2.019h-2c-4.411 0-8 3.589-8 8v8h-1c-.553 0-1 .448-1 1v5h-12c-.553 0-1 .448-1 1v12c0 .552.447 1 1 1h60c.553 0 1-.448 1-1v-12c0-.552-.447-1-1-1zm-16-14v8h-10.323l-1.582-3.955 1.152-2.304 2.305 1.153c.141.071.295.106.448.106.13 0 .26-.025.383-.076.268-.111.475-.333.565-.607l2.694-8.082c2.512.716 4.358 3.026 4.358 5.765zm-19.469-6 3.892 4.67-3.839 1.92-2.197-6.59zm10.938 0h2.144l-2.197 6.59-3.839-1.92zm-5.469 6.118 1.458.729-1.076 2.153h-.764l-1.076-2.153zm-.323 4.882h.645l1.2 3h-3.045zm12.323-22.5c0 .827-.673 1.5-1.5 1.5h-.702c.132-.646.202-1.315.202-2v-1h.5c.827 0 1.5.673 1.5 1.5zm-22.5 1.5c-.827 0-1.5-.673-1.5-1.5s.673-1.5 1.5-1.5h.5v1c0 .685.07 1.354.202 2zm1.5-7c0-4.962 4.037-9 9-9s9 4.038 9 9v2c-1.565 0-3.061-.748-4-2l-1.2-1.6c-.377-.504-1.223-.504-1.6 0l-1.2 1.6c-.939 1.252-2.435 2-4 2h-6zm1 5v-1h5c2.191 0 4.285-1.047 5.6-2.8l.4-.534.4.534c1.112 1.484 2.783 2.462 4.6 2.727v1.073c0 4.411-3.589 8-8 8s-8-3.589-8-8zm8 10c1.422 0 2.774-.303 4-.841v1.479l-4 4.8-4-4.8v-1.479c1.226.538 2.578.841 4 .841zm-14 8c0-2.739 1.846-5.049 4.358-5.766l2.694 8.082c.091.275.298.497.565.607.123.052.253.077.383.077.153 0 .307-.035.447-.105l2.305-1.153 1.152 2.304-1.581 3.954h-10.323zm30 10v16h-32v-16zm-45 6h11v10h-11zm58 10h-11v-10h11z"/></g></g></svg>