<svg height="512" viewBox="0 0 64 64" width="512" xmlns="http://www.w3.org/2000/svg"><g id="Delivery_Cart" data-name="Delivery Cart"><path d="m19 59v2h-6l-2-1v-3h6a2.006 2.006 0 0 1 2 2z" fill="#ffa733"/><path d="m11 57v3l-2 1h-6v-2a2.006 2.006 0 0 1 2-2z" fill="#ff9811"/><path d="m15 10v2a3.994 3.994 0 0 1 -6 3.46 4.225 4.225 0 0 1 -.83-.63 4.025 4.025 0 0 1 -1.17-2.83v-2h1.34a4 4 0 0 0 2.83-1.17l.83-.83 1.41 1.41a2.006 2.006 0 0 0 1.42.59z" fill="#ffc477"/><circle cx="56" cy="58" fill="#898890" r="3"/><path d="m38 39h20v12h-20z" fill="#ffb655"/><path d="m50 35h8v4h-8z" fill="#ff9811"/><path d="m38 23h20v12h-20z" fill="#ffb655"/><g fill="#ff9811"><path d="m50 19h8v4h-8z"/><path d="m38 35h8v4h-8z"/><path d="m38 19h8v4h-8z"/></g><circle cx="39" cy="58" fill="#898890" r="3"/><path d="m30 17a2.006 2.006 0 0 1 2 2 2.015 2.015 0 0 1 -2 2h-4a2.006 2.006 0 0 1 -2-2 2.015 2.015 0 0 1 2-2z" fill="#ee8700"/><path d="m19 33v2.5a1.5 1.5 0 0 1 -3 0v-2.5z" fill="#ffb655"/><path d="m9 18a6 6 0 0 0 -6 6v9h3v4h5v-17z" fill="#3d9ae2"/><path d="m13 18-2 2v17h5v-4h3v-9a6 6 0 0 0 -6-6z" fill="#5aaae7"/><path d="m6 37h5v20h-5z" fill="#57565c"/><path d="m11 37h5v20h-5z" fill="#787680"/><path d="m16 8v2h-1.17a2.006 2.006 0 0 1 -1.42-.59l-1.41-1.41-.83.83a4 4 0 0 1 -2.83 1.17h-2.34v-2a5 5 0 0 1 10 0z" fill="#787680"/><path d="m13 15.46v2.54l-2 2-2-2v-2.54a3.974 3.974 0 0 0 4 0z" fill="#ffb655"/><path d="m6 33v2.5a1.5 1.5 0 0 1 -3 0v-2.5z" fill="#ffb655"/><path d="m50 39v4l-2-2-2 2v-4-4h4z" fill="#e6e7e8"/><path d="m50 23v4l-2-2-2 2v-4-4h4z" fill="#e6e7e8"/><path d="m59 51h-25v4h25a2.015 2.015 0 0 0 2-2 2.006 2.006 0 0 0 -2-2z" fill="#ee8700"/><circle cx="34" cy="53" fill="#ff9811" r="2"/><path d="m13 15.46v1a3.974 3.974 0 0 1 -4 0v-1a3.974 3.974 0 0 0 4 0z" fill="#ffa733"/><path d="m14 17.071v-1.1a4.977 4.977 0 0 0 2-3.971v-1a1 1 0 0 0 1-1v-2a6 6 0 0 0 -12 0v2a1 1 0 0 0 1 1v1a4.977 4.977 0 0 0 2 3.974v1.1a7.011 7.011 0 0 0 -6 6.926v11.5a2.5 2.5 0 0 0 3 2.449v18.051a3 3 0 0 0 -3 3v2a1 1 0 0 0 1 1h6a1 1 0 0 0 .447-.1l1.553-.782 1.553.777a1 1 0 0 0 .447.105h6a1 1 0 0 0 1-1v-2a3 3 0 0 0 -3-3v-18.051a2.5 2.5 0 0 0 3-2.449v-11.5a7.011 7.011 0 0 0 -6-6.929zm-7-9.071a4 4 0 0 1 8 0v1h-.172a1 1 0 0 1 -.707-.293l-1.414-1.414a1 1 0 0 0 -1.414 0l-.828.828a2.98 2.98 0 0 1 -2.122.879h-1.343zm1.343 3a4.969 4.969 0 0 0 3.536-1.465l.121-.121.707.707a2.98 2.98 0 0 0 1.293.749v1.13a3 3 0 0 1 -6 0v-1zm2.657 6a5 5 0 0 0 1-.1v.687l-1 1-1-1v-.687a5 5 0 0 0 1 .1zm-6.5 19a.5.5 0 0 1 -.5-.5v-1.5h1v1.5a.5.5 0 0 1 -.5.5zm4.264 24h-4.764v-1a1 1 0 0 1 1-1h5v1.382zm9.236-1v1h-4.764l-1.236-.618v-1.382h5a1 1 0 0 1 1 1zm-6-3v-16h-2v16h-3v-18h8v18zm5.5-20a.5.5 0 0 1 -.5-.5v-1.5h1v1.5a.5.5 0 0 1 -.5.5zm.5-4h-1v-9h-2v13h-8v-13h-2v9h-1v-8a4.991 4.991 0 0 1 4.624-4.962l1.376 1.376v12.586h2v-12.586l1.376-1.376a4.991 4.991 0 0 1 4.624 4.962z"/><path d="m62 53a3 3 0 0 0 -3-3v-31a1 1 0 0 0 -1-1h-20a1 1 0 0 0 -1 1v31h-2.061l-1.939-31.062a3 3 0 0 0 -3-2.938h-4a3 3 0 0 0 0 6h4a2.988 2.988 0 0 0 1.171-.238l1.777 28.438a2.994 2.994 0 0 0 1.052 5.8h1.556a3.959 3.959 0 0 0 -.556 2 4 4 0 0 0 8 0 3.959 3.959 0 0 0 -.556-2h10.112a3.959 3.959 0 0 0 -.556 2 4 4 0 1 0 7.421-2.043 2.994 2.994 0 0 0 2.579-2.957zm-17-15h-6v-2h6zm-6-14h6v3a1 1 0 0 0 1.707.707l1.293-1.293 1.293 1.293a1 1 0 0 0 .707.293.987.987 0 0 0 .383-.076 1 1 0 0 0 .617-.924v-3h6v10h-18zm8-4h2v4.586l-.293-.293a1 1 0 0 0 -1.414 0l-.293.293zm0 16h2v4.586l-.293-.293a1 1 0 0 0 -1.414 0l-.293.293zm4 0h6v2h-6zm6-14h-6v-2h6zm-12-2v2h-6v-2zm-6 20h6v3a1 1 0 0 0 1.707.707l1.293-1.293 1.293 1.293a1 1 0 0 0 .707.293.987.987 0 0 0 .383-.076 1 1 0 0 0 .617-.924v-3h6v10h-18zm-9-20h-4a1 1 0 0 1 0-2h4a1 1 0 0 1 0 2zm3 33a1 1 0 1 1 1 1 1 1 0 0 1 -1-1zm8 5a2 2 0 1 1 -2-2 2 2 0 0 1 2 2zm15 2a2 2 0 1 1 2-2 2 2 0 0 1 -2 2zm3-6h-22.184a2.809 2.809 0 0 0 0-2h22.184a1 1 0 0 1 0 2z"/></g></svg>