<svg enable-background="new 0 0 256 256" height="512" viewBox="0 0 256 256" width="512" xmlns="http://www.w3.org/2000/svg"><path d="m214.685 2.502h-93.213c-11.874 0-21.588 9.715-21.588 21.588v70.67c0 11.874 9.715 21.588 21.588 21.588h25.104c2.493 0 4.851 1.13 6.412 3.073l12.037 14.981c1.568 1.951 4.539 1.951 6.107 0l12.037-14.981c1.561-1.943 3.919-3.073 6.412-3.073h25.104c11.874 0 21.588-9.715 21.588-21.588v-70.67c0-11.873-9.715-21.588-21.588-21.588z" fill="#a0d85d"/><path d="m159.478 80.53-14.665-14.665c-3.124-3.124-3.124-8.189 0-11.313 3.125-3.124 8.189-3.124 11.314 0l9.008 9.008 21.92-21.92c3.125-3.124 8.189-3.124 11.314 0 3.124 3.124 3.124 8.189 0 11.313l-27.577 27.577c-3.126 3.125-8.189 3.124-11.314 0z" fill="#edf4fc"/><path d="m189.581 116.348c-2.493 0-4.851 1.13-6.412 3.073l-12.037 14.981c-1.568 1.951-4.539 1.951-6.107 0l-12.037-14.981c-1.561-1.943-3.919-3.073-6.412-3.073h-25.104c-11.874 0-21.588-9.715-21.588-21.588v-12.797c-24.75 0-39.739 0-68.656 0-6.325 0-11.5 5.175-11.5 11.5v148.538c0 6.325 5.175 11.5 11.5 11.5h148.538c6.325 0 11.5-5.175 11.5-11.5 0-12.423 0-86.095 0-125.652h-1.685z" fill="#bf6132"/><path d="m121.471 116.348c-11.874 0-21.588-9.715-21.588-21.588v-12.797c-3.631 0-7.055 0-10.341 0v69.544h36.784v-35.159z" fill="#facb35"/><path d="m99.883 94.76v-12.797c-3.631 0-7.057 0-10.341 0v69.544h18.048v-40.251c-4.703-3.968-7.707-9.897-7.707-16.496z" fill="#fcac27"/><path d="m168.079 138.366c-1.955 0-3.778-.874-5.003-2.397l-12.038-14.982c-1.092-1.359-2.719-2.139-4.463-2.139h-25.104c-13.282 0-24.088-10.806-24.088-24.088v-70.67c0-13.282 10.806-24.088 24.088-24.088h93.213c13.282 0 24.088 10.806 24.088 24.088v70.67c0 13.282-10.806 24.088-24.088 24.088h-25.104c-1.744 0-3.371.78-4.463 2.139l-12.038 14.981c-1.223 1.524-3.046 2.398-5 2.398zm-46.607-133.364c-10.525 0-19.088 8.563-19.088 19.088v70.67c0 10.525 8.563 19.088 19.088 19.088h25.104c3.268 0 6.314 1.46 8.361 4.007l12.037 14.981c.37.46.851.529 1.104.529s.734-.069 1.104-.529l12.038-14.982c2.047-2.547 5.094-4.007 8.361-4.007h25.104c10.525 0 19.088-8.563 19.088-19.088v-70.669c0-10.525-8.562-19.088-19.088-19.088z"/><path d="m179.765 256h-148.538c-7.72 0-14-6.28-14-14v-148.538c0-7.72 6.28-14 14-14h68.656c1.381 0 2.5 1.119 2.5 2.5v12.798c0 10.525 8.563 19.088 19.088 19.088h25.104c3.268 0 6.314 1.46 8.361 4.007l12.037 14.981c.37.46.851.529 1.104.529s.734-.069 1.105-.53l12.036-14.981c2.047-2.547 5.094-4.007 8.361-4.007h1.684c1.381 0 2.5 1.119 2.5 2.5v125.653c.002 7.72-6.279 14-13.998 14zm-148.538-171.538c-4.962 0-9 4.038-9 9v148.538c0 4.962 4.038 9 9 9h148.538c4.963 0 9-4.038 9-9v-123.094c-1.429.203-2.728.937-3.646 2.082l-12.037 14.981c-1.226 1.524-3.049 2.397-5.003 2.397s-3.777-.874-5.002-2.397l-12.038-14.982c-1.092-1.359-2.719-2.139-4.463-2.139h-25.104c-13.282 0-24.088-10.806-24.088-24.088v-10.298z"/><path d="m126.327 154.007h-36.784c-1.381 0-2.5-1.119-2.5-2.5v-69.545c0-1.381 1.119-2.5 2.5-2.5h10.34c1.381 0 2.5 1.119 2.5 2.5v12.798c0 10.525 8.563 19.088 19.088 19.088h4.855c1.381 0 2.5 1.119 2.5 2.5v35.159c.001 1.381-1.118 2.5-2.499 2.5zm-34.284-5h31.784v-30.159h-2.355c-13.282 0-24.088-10.806-24.088-24.088v-10.298h-5.34v64.545z"/><path d="m107.591 154.007h-18.048c-1.381 0-2.5-1.119-2.5-2.5v-69.545c0-1.381 1.119-2.5 2.5-2.5h10.34c1.381 0 2.5 1.119 2.5 2.5v12.798c0 5.613 2.486 10.929 6.819 14.585.563.475.888 1.174.888 1.911v40.251c.001 1.381-1.118 2.5-2.499 2.5zm-15.548-5h13.048v-36.627c-4.913-4.568-7.708-10.924-7.708-17.621v-10.297h-5.34z"/><path d="m157.71 82.298-14.665-14.666c-1.983-1.983-3.075-4.62-3.075-7.424s1.092-5.441 3.075-7.424c4.094-4.095 10.756-4.092 14.85 0l7.24 7.241 20.152-20.152c4.095-4.095 10.757-4.092 14.85 0 4.094 4.094 4.094 10.755 0 14.849l-27.577 27.575c-4.104 4.104-10.745 4.105-14.85.001zm-7.24-27.587c-1.408 0-2.817.536-3.89 1.608-1.038 1.039-1.61 2.419-1.61 3.889s.572 2.85 1.61 3.889l14.665 14.665c2.15 2.149 5.629 2.15 7.779 0l27.577-27.577c2.145-2.145 2.145-5.634 0-7.778-2.146-2.144-5.636-2.144-7.779 0l-21.92 21.92c-.938.938-2.598.938-3.535 0l-9.008-9.008c-1.072-1.072-2.481-1.608-3.889-1.608z"/></svg>