<svg viewBox="0 0 64 64" xmlns="http://www.w3.org/2000/svg"><path d="m30 34h-18a8 8 0 0 0 -8 8v10h34v-10a8 8 0 0 0 -8-8z" fill="#c2c2c2"/><path d="m38 52.5h-34a.5.5 0 0 1 -.5-.5v-10a8.51 8.51 0 0 1 8.5-8.5h18a8.51 8.51 0 0 1 8.5 8.5v10a.5.5 0 0 1 -.5.5zm-33.5-1h33v-9.5a7.508 7.508 0 0 0 -7.5-7.5h-18a7.508 7.508 0 0 0 -7.5 7.5z" fill="#212a41"/><path d="m12 42v10h34v-10a8 8 0 0 0 -8-8h-18a8 8 0 0 0 -8 8z" fill="#e0e0e0"/><path d="m46 52.5h-34a.5.5 0 0 1 -.5-.5v-10a8.51 8.51 0 0 1 8.5-8.5h18a8.51 8.51 0 0 1 8.5 8.5v10a.5.5 0 0 1 -.5.5zm-33.5-1h33v-9.5a7.508 7.508 0 0 0 -7.5-7.5h-18a7.508 7.508 0 0 0 -7.5 7.5z" fill="#212a41"/><path d="m44 49.5a.5.5 0 0 1 -.5-.5v-7a5.507 5.507 0 0 0 -5.5-5.5.5.5 0 0 1 0-1 6.508 6.508 0 0 1 6.5 6.5v7a.5.5 0 0 1 -.5.5z" fill="#c2c2c2"/><path d="m6 50.5a.5.5 0 0 1 -.5-.5v-8a6.508 6.508 0 0 1 6.5-6.5.5.5 0 1 1 .005 1h-.005a5.507 5.507 0 0 0 -5.5 5.5v8a.5.5 0 0 1 -.5.5z" fill="#e0e0e0"/><circle cx="35" cy="17" fill="#e0c8a4" r="3"/><path d="m35 20.5a3.5 3.5 0 1 1 3.5-3.5 3.5 3.5 0 0 1 -3.5 3.5zm0-6a2.5 2.5 0 1 0 2.5 2.5 2.5 2.5 0 0 0 -2.5-2.5z" fill="#212a41"/><path d="m29 6h-8a6 6 0 0 0 -6 6v2a3 3 0 0 0 0 6v2a6 6 0 0 0 6 6h8a6 6 0 0 0 6-6v-10a6 6 0 0 0 -6-6z" fill="#e0c8a4"/><path d="m29 28.5h-8a6.508 6.508 0 0 1 -6.5-6.5v-1.535a3.5 3.5 0 0 1 0-6.93v-1.535a6.508 6.508 0 0 1 6.5-6.5h8a6.508 6.508 0 0 1 6.5 6.5v10a6.508 6.508 0 0 1 -6.5 6.5zm-8-22a5.507 5.507 0 0 0 -5.5 5.5v2a.5.5 0 0 1 -.5.5 2.5 2.5 0 0 0 0 5 .5.5 0 0 1 .5.5v2a5.507 5.507 0 0 0 5.5 5.5h8a5.507 5.507 0 0 0 5.5-5.5v-10a5.507 5.507 0 0 0 -5.5-5.5z" fill="#212a41"/><path d="m21 26.5a4.505 4.505 0 0 1 -4.5-4.5.5.5 0 0 1 1 0 3.5 3.5 0 0 0 3.5 3.5.5.5 0 0 1 0 1z" fill="#fee6c2"/><path d="m29 26.5a.5.5 0 0 1 0-1 3.5 3.5 0 0 0 3.5-3.5v-9a.5.5 0 0 1 1 0v9a4.505 4.505 0 0 1 -4.5 4.5z" fill="#c2aa86"/><path d="m21 28h8v6h-8z" fill="#e8d2a8"/><path d="m29 34.5h-8a.5.5 0 0 1 -.5-.5v-6a.5.5 0 0 1 .5-.5h8a.5.5 0 0 1 .5.5v6a.5.5 0 0 1 -.5.5zm-7.5-1h7v-5h-7z" fill="#212a41"/><path d="m14 50.5a.5.5 0 0 1 -.5-.5v-8a6.508 6.508 0 0 1 6.5-6.5.5.5 0 0 1 0 1 5.507 5.507 0 0 0 -5.5 5.5v8a.5.5 0 0 1 -.5.5z" fill="#fefefe"/><path d="m19 4h17a0 0 0 0 1 0 0v3a4 4 0 0 1 -4 4h-17a0 0 0 0 1 0 0v-3a4 4 0 0 1 4-4z" fill="#6c696f"/><path d="m32 11.5h-17a.5.5 0 0 1 -.5-.5v-3a4.505 4.505 0 0 1 4.5-4.5h17a.5.5 0 0 1 .5.5v3a4.505 4.505 0 0 1 -4.5 4.5zm-16.5-1h16.5a3.5 3.5 0 0 0 3.5-3.5v-2.5h-16.5a3.5 3.5 0 0 0 -3.5 3.5z" fill="#212a41"/><path d="m32 9.5a.5.5 0 0 1 0-1 1.5 1.5 0 0 0 1.5-1.5v-1a.5.5 0 0 1 1 0v1a2.5 2.5 0 0 1 -2.5 2.5z" fill="#4e4b51"/><path d="m15 6h3a0 0 0 0 1 0 0v4a4 4 0 0 1 -4 4h-1a0 0 0 0 1 0 0v-6a2 2 0 0 1 2-2z" fill="#4e4b51"/><path d="m14 14.5h-1a.5.5 0 0 1 -.5-.5v-6a2.5 2.5 0 0 1 2.5-2.5h3a.5.5 0 0 1 .5.5v4a4.505 4.505 0 0 1 -4.5 4.5zm-.5-1h.5a3.5 3.5 0 0 0 3.5-3.5v-3.5h-2.5a1.5 1.5 0 0 0 -1.5 1.5z" fill="#212a41"/><path d="m15 12.231a.5.5 0 0 1 -.5-.5v-3.731a.5.5 0 0 1 1 0v3.731a.5.5 0 0 1 -.5.5z" fill="#6c696f"/><path d="m15 20.5a3.5 3.5 0 0 1 -2.475-5.975 3.585 3.585 0 0 1 4.95 0 .5.5 0 0 1 -.707.707 2.56 2.56 0 0 0 -3.536 0 2.5 2.5 0 0 0 0 3.536 2.56 2.56 0 0 0 3.536 0 .5.5 0 0 1 .707.707 3.475 3.475 0 0 1 -2.475 1.025z" fill="#212a41"/><path d="m35 34h-4l2-3z" fill="#e0e0e0"/><path d="m35 34.5h-4a.5.5 0 0 1 -.416-.777l2-3a.519.519 0 0 1 .832 0l2 3a.5.5 0 0 1 -.416.777zm-3.065-1h2.13l-1.065-1.6z" fill="#212a41"/><path d="m31 34h-2v-3h4z" fill="#c2c2c2"/><path d="m31 34.5h-2a.5.5 0 0 1 -.5-.5v-3a.5.5 0 0 1 .5-.5h4a.5.5 0 0 1 .416.777l-2 3a.5.5 0 0 1 -.416.223zm-1.5-1h1.232l1.333-2h-2.565z" fill="#212a41"/><path d="m27 34h-4l2-3z" fill="#e0e0e0"/><path d="m27 34.5h-4a.5.5 0 0 1 -.416-.777l2-3a.519.519 0 0 1 .832 0l2 3a.5.5 0 0 1 -.416.777zm-3.065-1h2.13l-1.065-1.6z" fill="#212a41"/><path d="m23 34h-7l2-3h7z" fill="#c2c2c2"/><path d="m23 34.5h-7a.5.5 0 0 1 -.416-.777l2-3a.5.5 0 0 1 .416-.223h7a.5.5 0 0 1 .416.777l-2 3a.5.5 0 0 1 -.416.223zm-6.065-1h5.8l1.333-2h-5.8z" fill="#212a41"/><path d="m32 52h-6l1-12h4z" fill="#d32e5e"/><path d="m32 52.5h-6a.5.5 0 0 1 -.5-.542l1-12a.5.5 0 0 1 .5-.458h4a.5.5 0 0 1 .5.458l1 12a.5.5 0 0 1 -.5.542zm-5.457-1h4.914l-.917-11h-3.08z" fill="#212a41"/><path d="m31 34h-4l-2 3 2 3h4l2-3z" fill="#d32e5e"/><path d="m31 40.5h-4a.5.5 0 0 1 -.416-.223l-2-3a.5.5 0 0 1 0-.554l2-3a.5.5 0 0 1 .416-.223h4a.5.5 0 0 1 .416.223l2 3a.5.5 0 0 1 0 .554l-2 3a.5.5 0 0 1 -.416.223zm-3.732-1h3.464l1.668-2.5-1.667-2.5h-3.465l-1.668 2.5z" fill="#212a41"/><path d="m4 52h20a0 0 0 0 1 0 0v8a0 0 0 0 1 0 0h-18a2 2 0 0 1 -2-2v-6a0 0 0 0 1 0 0z" fill="#c2aa86"/><path d="m24 60.5h-18a2.5 2.5 0 0 1 -2.5-2.5v-6a.5.5 0 0 1 .5-.5h20a.5.5 0 0 1 .5.5v8a.5.5 0 0 1 -.5.5zm-19.5-8v5.5a1.5 1.5 0 0 0 1.5 1.5h17.5v-7z" fill="#212a41"/><path d="m14 58.5a.5.5 0 0 1 -.5-.5v-4a.5.5 0 0 1 1 0v4a.5.5 0 0 1 -.5.5z" fill="#fee6c2"/><path d="m6 58.5a.5.5 0 0 1 -.5-.5v-4a.5.5 0 0 1 1 0v4a.5.5 0 0 1 -.5.5z" fill="#e0c8a4"/><path d="m20 52.5a.5.5 0 0 1 -.5-.5v-6a.5.5 0 0 1 1 0v6a.5.5 0 0 1 -.5.5z" fill="#212a41"/><rect fill="#4e4b51" height="26" rx="1" width="20" x="37" y="34"/><path d="m56 60.5h-18a1.5 1.5 0 0 1 -1.5-1.5v-24a1.5 1.5 0 0 1 1.5-1.5h18a1.5 1.5 0 0 1 1.5 1.5v24a1.5 1.5 0 0 1 -1.5 1.5zm-18-26a.5.5 0 0 0 -.5.5v24a.5.5 0 0 0 .5.5h18a.5.5 0 0 0 .5-.5v-24a.5.5 0 0 0 -.5-.5z" fill="#212a41"/><rect fill="#6c696f" height="26" rx="1" width="20" x="40" y="34"/><path d="m59 60.5h-18a1.5 1.5 0 0 1 -1.5-1.5v-24a1.5 1.5 0 0 1 1.5-1.5h18a1.5 1.5 0 0 1 1.5 1.5v24a1.5 1.5 0 0 1 -1.5 1.5zm-18-26a.5.5 0 0 0 -.5.5v24a.5.5 0 0 0 .5.5h18a.5.5 0 0 0 .5-.5v-24a.5.5 0 0 0 -.5-.5z" fill="#212a41"/><rect fill="#b7c0d7" height="20" rx="1" width="14" x="43" y="37"/><path d="m56 57.5h-12a1.5 1.5 0 0 1 -1.5-1.5v-18a1.5 1.5 0 0 1 1.5-1.5h12a1.5 1.5 0 0 1 1.5 1.5v18a1.5 1.5 0 0 1 -1.5 1.5zm-12-20a.5.5 0 0 0 -.5.5v18a.5.5 0 0 0 .5.5h12a.5.5 0 0 0 .5-.5v-18a.5.5 0 0 0 -.5-.5z" fill="#212a41"/><path d="m40 52h-5v-1.5a1.5 1.5 0 0 0 -3 0v1.5h-20v6a2 2 0 0 0 2 2h26a2 2 0 0 0 2-2v-4a2 2 0 0 0 -2-2z" fill="#e0c8a4"/><path d="m40 60.5h-26a2.5 2.5 0 0 1 -2.5-2.5v-6a.5.5 0 0 1 .5-.5h19.5v-1a2 2 0 0 1 4 0v1h4.5a2.5 2.5 0 0 1 2.5 2.5v4a2.5 2.5 0 0 1 -2.5 2.5zm-27.5-8v5.5a1.5 1.5 0 0 0 1.5 1.5h26a1.5 1.5 0 0 0 1.5-1.5v-4a1.5 1.5 0 0 0 -1.5-1.5h-5a.5.5 0 0 1 -.5-.5v-1.5a1 1 0 0 0 -2 0v1.5a.5.5 0 0 1 -.5.5z" fill="#212a41"/><circle cx="47" cy="23" fill="#f9ac2f" r="8"/><path d="m47 31.5a8.5 8.5 0 1 1 8.5-8.5 8.51 8.51 0 0 1 -8.5 8.5zm0-16a7.5 7.5 0 1 0 7.5 7.5 7.508 7.508 0 0 0 -7.5-7.5z" fill="#212a41"/><circle cx="50" cy="23" fill="#f9ac2f" r="8"/><path d="m50 31.5a8.5 8.5 0 1 1 8.5-8.5 8.51 8.51 0 0 1 -8.5 8.5zm0-16a7.5 7.5 0 1 0 7.5 7.5 7.508 7.508 0 0 0 -7.5-7.5z" fill="#212a41"/><path d="m50 29.5a.5.5 0 0 1 0-1 5.507 5.507 0 0 0 5.5-5.5.5.5 0 0 1 1 0 6.508 6.508 0 0 1 -6.5 6.5z" fill="#db8e11"/><path d="m44 23.5a.5.5 0 0 1 -.5-.5 6.508 6.508 0 0 1 6.5-6.5.5.5 0 0 1 0 1 5.507 5.507 0 0 0 -5.5 5.5.5.5 0 0 1 -.5.5z" fill="#ffca4d"/><g fill="#212a41"><path d="m50.5 26.5h-2.5a.5.5 0 0 1 0-1h2.5a1 1 0 0 0 0-2h-1a2 2 0 0 1 0-4h2.5a.5.5 0 0 1 0 1h-2.5a1 1 0 0 0 0 2h1a2 2 0 0 1 0 4z"/><path d="m50 20.5a.5.5 0 0 1 -.5-.5v-2a.5.5 0 0 1 1 0v2a.5.5 0 0 1 -.5.5z"/><path d="m50 28.5a.5.5 0 0 1 -.5-.5v-2a.5.5 0 0 1 1 0v2a.5.5 0 0 1 -.5.5z"/><path d="m54 42.5h-8a.5.5 0 0 1 0-1h8a.5.5 0 0 1 0 1z"/><path d="m54 45.5h-8a.5.5 0 0 1 0-1h8a.5.5 0 0 1 0 1z"/><path d="m54 48.5h-8a.5.5 0 0 1 0-1h8a.5.5 0 0 1 0 1z"/><path d="m54 51.5h-8a.5.5 0 0 1 0-1h8a.5.5 0 0 1 0 1z"/></g></svg>