<?xml version="1.0"?>
<svg xmlns="http://www.w3.org/2000/svg" viewBox="0 0 192 192" width="512" height="512"><g id="_08-coin" data-name="08-coin"><g id="Glyph"><path d="M72,63.713c35.7,0,71.826-10.943,71.992-31.856,0-.237-.013-.473-.038-.7C142.985,10.7,107.291,0,72,0S1.015,10.7.046,31.152c-.025.232-.034.468-.038.7C.174,52.77,36.3,63.713,72,63.713ZM72,8c35.346,0,64,10.745,64,24S107.346,56,72,56,8,45.255,8,32,36.654,8,72,8Z"/><ellipse cx="72" cy="32" rx="56" ry="16"/><path d="M128,64a64,64,0,1,0,64,64A64.072,64.072,0,0,0,128,64Zm0,120a56,56,0,1,1,56-56A56.064,56.064,0,0,1,128,184Z"/><path d="M128,80a48,48,0,1,0,48,48A48.055,48.055,0,0,0,128,80Zm24,32H120v8h16a16.019,16.019,0,0,1,16,16v8a16.019,16.019,0,0,1-16,16v8H120v-8H104V144h32v-8H120a16.019,16.019,0,0,1-16-16v-8a16.019,16.019,0,0,1,16-16V88h16v8h16Z"/><path d="M0,104v24c0,19.321,30.637,30.161,63.389,31.78a71.531,71.531,0,0,1-7.023-24.491C26.389,132.558,0,121.931,0,104Z"/><path d="M56.026,126.972A71.8,71.8,0,0,1,60.25,103.6C28.706,101.458,0,90.7,0,72V95.713C0,113.576,26.19,124.192,56.026,126.972Z"/><path d="M83.233,71.631C79.511,71.872,75.754,72,72,72,36.221,72,0,61.008,0,40V63.713c0,19.392,30.864,30.242,63.753,31.8A72.263,72.263,0,0,1,83.233,71.631Z"/></g></g></svg>
